<svg xmlns="http://www.w3.org/2000/svg" viewBox="0 0 720 960" role="img" aria-label="1937年上海报纸版面">
  <rect width="720" height="960" fill="#292a27"/><path d="M64 54h592v852H64z" fill="#c4b797" stroke="#4b473b" stroke-width="9"/>
  <g fill="#30312d" font-family="STSong,serif"><text x="250" y="127" font-size="55">上海战讯</text><text x="99" y="178" font-size="20">民国二十六年八月　号外</text><text x="112" y="270" font-size="37">闸北战事扩大</text><text x="118" y="320" font-size="24">救护与交通线继续维持</text></g>
  <rect x="103" y="357" width="238" height="204" fill="#6e6c62"/><path d="M116 538l57-89 51 45 42-76 60 120" fill="#3f423f"/>
  <g stroke="#5f5849" stroke-width="4"><path d="M373 363h235M373 405h235M373 447h235M373 489h235M373 531h235M104 611h504M104 656h504M104 701h504M104 746h504M104 791h504M104 836h504"/></g>
</svg>
